<?xml version="1.0" encoding="UTF-8" standalone="no"?>
<!-- Created with Inkscape (http://www.inkscape.org/) -->

<svg
   xmlns:dc="http://purl.org/dc/elements/1.1/"
   xmlns:cc="http://creativecommons.org/ns#"
   xmlns:rdf="http://www.w3.org/1999/02/22-rdf-syntax-ns#"
   xmlns:svg="http://www.w3.org/2000/svg"
   xmlns="http://www.w3.org/2000/svg"
   xmlns:sodipodi="http://sodipodi.sourceforge.net/DTD/sodipodi-0.dtd"
   xmlns:inkscape="http://www.inkscape.org/namespaces/inkscape"
   width="100"
   height="100"
   viewBox="0 0 26.458333 26.458334"
   version="1.1"
   id="svg8"
   inkscape:version="0.92.4 (5da689c313, 2019-01-14)"
   sodipodi:docname="close.svg">
  <defs
     id="defs2" />
  <sodipodi:namedview
     id="base"
     pagecolor="#ffffff"
     bordercolor="#666666"
     borderopacity="1.0"
     inkscape:pageopacity="0.0"
     inkscape:pageshadow="2"
     inkscape:zoom="1.979899"
     inkscape:cx="24.39573"
     inkscape:cy="42.896645"
     inkscape:document-units="mm"
     inkscape:current-layer="layer1"
     showgrid="false"
     units="px"
     inkscape:window-width="1920"
     inkscape:window-height="1023"
     inkscape:window-x="0"
     inkscape:window-y="25"
     inkscape:window-maximized="1" />
  <metadata
     id="metadata5">
    <rdf:RDF>
      <cc:Work
         rdf:about="">
        <dc:format>image/svg+xml</dc:format>
        <dc:type
           rdf:resource="http://purl.org/dc/dcmitype/StillImage" />
        <dc:title></dc:title>
      </cc:Work>
    </rdf:RDF>
  </metadata>
  <g
     inkscape:label="Layer 1"
     inkscape:groupmode="layer"
     id="layer1"
     transform="translate(0,-270.54165)">
    <g
       aria-label="I"
       style="font-style:normal;font-weight:normal;font-size:10.58333302px;line-height:1.25;font-family:sans-serif;letter-spacing:0px;word-spacing:0px;fill:#000000;fill-opacity:1;stroke:none;stroke-width:0.26458332"
       id="text12"
       transform="matrix(0.83997093,-0.98715738,0.98715738,0.83997093,-270.97432,66.614729)">
      <path
         d="m 11.994796,277.34707 q 0,-0.42898 0.09031,-0.67733 0.09031,-0.27094 0.225777,-0.42898 0.158045,-0.18062 0.361245,-0.27093 0.2032,-0.11289 0.451555,-0.2032 0.225778,-0.0903 0.428978,-0.18063 0.225778,-0.0903 0.361245,-0.24835 0.158044,-0.18062 0.248355,-0.45156 0.09031,-0.27093 0.09031,-0.69991 v -7.22489 q 0,-0.85795 0.180622,-1.10631 0.2032,-0.24835 0.722489,-0.24835 0.519289,0 0.699911,0.24835 0.2032,0.24836 0.2032,1.10631 v 15.80445 q 0,0.58702 -0.06773,0.94826 -0.04516,0.36125 -0.248355,0.56445 -0.180623,0.18062 -0.541867,0.24835 -0.361245,0.0452 -0.948267,0.0452 h -0.451555 q -0.587023,0 -0.948267,-0.0452 -0.361244,-0.0677 -0.564444,-0.24835 -0.180623,-0.2032 -0.248356,-0.56445 -0.04516,-0.36124 -0.04516,-0.94826 z"
         style="font-style:normal;font-variant:normal;font-weight:normal;font-stretch:normal;font-size:22.57777786px;font-family:'Lazenby Computer';-inkscape-font-specification:'Lazenby Computer';stroke-width:0.26458332"
         id="path14"
         inkscape:connector-curvature="0" />
    </g>
    <g
       aria-label="I"
       style="font-style:normal;font-weight:normal;font-size:10.58333302px;line-height:1.25;font-family:sans-serif;letter-spacing:0px;word-spacing:0px;fill:#000000;fill-opacity:1;stroke:none;stroke-width:0.26458332"
       id="text12-7"
       transform="matrix(-0.95418014,-0.87725202,0.87725202,-0.95418014,-214.64457,561.05447)">
      <path
         d="m 11.994796,277.34707 q 0,-0.42898 0.09031,-0.67733 0.09031,-0.27094 0.225777,-0.42898 0.158045,-0.18062 0.361245,-0.27093 0.2032,-0.11289 0.451555,-0.2032 0.225778,-0.0903 0.428978,-0.18063 0.225778,-0.0903 0.361245,-0.24835 0.158044,-0.18062 0.248355,-0.45156 0.09031,-0.27093 0.09031,-0.69991 v -7.22489 q 0,-0.85795 0.180622,-1.10631 0.2032,-0.24835 0.722489,-0.24835 0.519289,0 0.699911,0.24835 0.2032,0.24836 0.2032,1.10631 v 15.80445 q 0,0.58702 -0.06773,0.94826 -0.04516,0.36125 -0.248355,0.56445 -0.180623,0.18062 -0.541867,0.24835 -0.361245,0.0452 -0.948267,0.0452 h -0.451555 q -0.587023,0 -0.948267,-0.0452 -0.361244,-0.0677 -0.564444,-0.24835 -0.180623,-0.2032 -0.248356,-0.56445 -0.04516,-0.36124 -0.04516,-0.94826 z"
         style="font-style:normal;font-variant:normal;font-weight:normal;font-stretch:normal;font-size:22.57777786px;font-family:'Lazenby Computer';-inkscape-font-specification:'Lazenby Computer';stroke-width:0.26458332"
         id="path14-5"
         inkscape:connector-curvature="0" />
    </g>
  </g>
</svg>
