<?xml version="1.0" encoding="UTF-8" standalone="no"?>
<!-- Created with Inkscape (http://www.inkscape.org/) -->

<svg
   xmlns:dc="http://purl.org/dc/elements/1.1/"
   xmlns:cc="http://creativecommons.org/ns#"
   xmlns:rdf="http://www.w3.org/1999/02/22-rdf-syntax-ns#"
   xmlns:svg="http://www.w3.org/2000/svg"
   xmlns="http://www.w3.org/2000/svg"
   xmlns:sodipodi="http://sodipodi.sourceforge.net/DTD/sodipodi-0.dtd"
   xmlns:inkscape="http://www.inkscape.org/namespaces/inkscape"
   width="40"
   height="40"
   viewBox="0 0 10.583333 10.583333"
   version="1.1"
   id="svg8"
   inkscape:version="0.92.4 (5da689c313, 2019-01-14)"
   sodipodi:docname="menu.svg">
  <defs
     id="defs2" />
  <sodipodi:namedview
     id="base"
     pagecolor="#ffffff"
     bordercolor="#666666"
     borderopacity="1.0"
     inkscape:pageopacity="0.0"
     inkscape:pageshadow="2"
     inkscape:zoom="5.6"
     inkscape:cx="55.0906"
     inkscape:cy="39.209921"
     inkscape:document-units="mm"
     inkscape:current-layer="layer1"
     showgrid="false"
     units="px"
     inkscape:window-width="1920"
     inkscape:window-height="1023"
     inkscape:window-x="0"
     inkscape:window-y="25"
     inkscape:window-maximized="1" />
  <metadata
     id="metadata5">
    <rdf:RDF>
      <cc:Work
         rdf:about="">
        <dc:format>image/svg+xml</dc:format>
        <dc:type
           rdf:resource="http://purl.org/dc/dcmitype/StillImage" />
        <dc:title></dc:title>
      </cc:Work>
    </rdf:RDF>
  </metadata>
  <g
     inkscape:label="Layer 1"
     inkscape:groupmode="layer"
     id="layer1"
     transform="translate(0,-286.41667)">
    <g
       aria-label="iii"
       transform="matrix(0,0.46666341,0.46666341,0,-0.88190142,159.2829)"
       style="font-style:normal;font-weight:normal;font-size:10.58333302px;line-height:1.25;font-family:sans-serif;letter-spacing:0px;word-spacing:0px;fill:#000000;fill-opacity:1;stroke:none;stroke-width:0.26458332"
       id="text12">
      <path
         d="m 276.86102,15.204723 q 0,-0.375356 0.079,-0.592667 0.079,-0.237067 0.19755,-0.375356 0.13829,-0.158044 0.31609,-0.237066 0.1778,-0.09878 0.39511,-0.1778 0.19756,-0.07902 0.37536,-0.158045 0.19755,-0.07902 0.31609,-0.217311 0.13828,-0.158044 0.21731,-0.395111 0.079,-0.237067 0.079,-0.612422 V 6.1171669 q 0,-0.7507111 0.15804,-0.9680222 0.1778,-0.2173111 0.63218,-0.2173111 0.45438,0 0.61242,0.2173111 0.1778,0.2173111 0.1778,0.9680222 V 19.946056 q 0,0.513645 -0.0593,0.829734 -0.0395,0.316088 -0.21731,0.493888 -0.15805,0.158045 -0.47414,0.217312 -0.31609,0.03951 -0.82973,0.03951 h -0.39511 q -0.51365,0 -0.82974,-0.03951 -0.31608,-0.05927 -0.49388,-0.217312 -0.15805,-0.1778 -0.21732,-0.493888 -0.0395,-0.316089 -0.0395,-0.829734 z"
         style="font-style:normal;font-variant:normal;font-weight:normal;font-stretch:normal;font-size:19.75555611px;font-family:'Lazenby Computer';-inkscape-font-specification:'Lazenby Computer';stroke-width:0.26458332"
         id="path33"
         inkscape:connector-curvature="0" />
      <path
         d="m 281.99284,15.204723 q 0,-0.375356 0.079,-0.592667 0.079,-0.237067 0.19756,-0.375356 0.13828,-0.158044 0.31608,-0.237066 0.1778,-0.09878 0.39512,-0.1778 0.19755,-0.07902 0.37535,-0.158045 0.19756,-0.07902 0.31609,-0.217311 0.13829,-0.158044 0.21731,-0.395111 0.079,-0.237067 0.079,-0.612422 V 6.1171669 q 0,-0.7507111 0.15805,-0.9680222 0.1778,-0.2173111 0.63218,-0.2173111 0.45437,0 0.61242,0.2173111 0.1778,0.2173111 0.1778,0.9680222 V 19.946056 q 0,0.513645 -0.0593,0.829734 -0.0395,0.316088 -0.21731,0.493888 -0.15804,0.158045 -0.47413,0.217312 -0.31609,0.03951 -0.82974,0.03951 h -0.39511 q -0.51364,0 -0.82973,-0.03951 -0.31609,-0.05927 -0.49389,-0.217312 -0.15804,-0.1778 -0.21731,-0.493888 -0.0395,-0.316089 -0.0395,-0.829734 z"
         style="font-style:normal;font-variant:normal;font-weight:normal;font-stretch:normal;font-size:19.75555611px;font-family:'Lazenby Computer';-inkscape-font-specification:'Lazenby Computer';stroke-width:0.26458332"
         id="path35"
         inkscape:connector-curvature="0" />
      <path
         d="m 287.12465,15.204723 q 0,-0.375356 0.079,-0.592667 0.079,-0.237067 0.19756,-0.375356 0.13829,-0.158044 0.31609,-0.237066 0.1778,-0.09878 0.39511,-0.1778 0.19756,-0.07902 0.37536,-0.158045 0.19755,-0.07902 0.31608,-0.217311 0.13829,-0.158044 0.21732,-0.395111 0.079,-0.237067 0.079,-0.612422 V 6.1171669 q 0,-0.7507111 0.15804,-0.9680222 0.1778,-0.2173111 0.63218,-0.2173111 0.45438,0 0.61242,0.2173111 0.1778,0.2173111 0.1778,0.9680222 V 19.946056 q 0,0.513645 -0.0593,0.829734 -0.0395,0.316088 -0.21732,0.493888 -0.15804,0.158045 -0.47413,0.217312 -0.31609,0.03951 -0.82973,0.03951 h -0.39511 q -0.51365,0 -0.82974,-0.03951 -0.31609,-0.05927 -0.49389,-0.217312 -0.15804,-0.1778 -0.21731,-0.493888 -0.0395,-0.316089 -0.0395,-0.829734 z"
         style="font-style:normal;font-variant:normal;font-weight:normal;font-stretch:normal;font-size:19.75555611px;font-family:'Lazenby Computer';-inkscape-font-specification:'Lazenby Computer';stroke-width:0.26458332"
         id="path37"
         inkscape:connector-curvature="0" />
    </g>
  </g>
</svg>
